<svg xmlns="http://www.w3.org/2000/svg" viewBox="0 0 1560 1060" font-family="Segoe UI, Helvetica, Arial, sans-serif">
<defs>
<marker id="arr" viewBox="0 0 10 10" refX="9" refY="5" markerWidth="7" markerHeight="7" orient="auto-start-reverse">
  <path d="M0,0 L10,5 L0,10 z" fill="#64748b"/></marker>
<marker id="arrA" viewBox="0 0 10 10" refX="9" refY="5" markerWidth="7" markerHeight="7" orient="auto-start-reverse">
  <path d="M0,0 L10,5 L0,10 z" fill="#f97316"/></marker>
</defs>
<rect width="1560" height="1060" rx="24" fill="#0f172a"/>
<text x="780.0" y="46" text-anchor="middle" fill="#f1f5f9" font-size="24" font-weight="700">Inventory Manager — DevSecOps &amp; GitOps Pipeline</text>
<rect x="30" y="78" width="1500" height="210" rx="18" fill="#131c31" stroke="#1e293b"/>
<rect x="30" y="78" width="6" height="210" rx="3" fill="#2088FF"/>
<text x="54" y="108" fill="#94a3b8" font-size="14" font-weight="700" letter-spacing="2">CI — GITHUB ACTIONS · EVERY PUSH</text>
<rect x="80.0" y="147.0" width="118" height="118" rx="12" fill="#1e293b" stroke="#e2e8f0" stroke-opacity="0.55"/>
<g transform="translate(120.0,161.0) scale(1.5833)"><path fill="#e2e8f0" d="M12 .297c-6.63 0-12 5.373-12 12 0 5.303 3.438 9.8 8.205 11.385.6.113.82-.258.82-.577 0-.285-.01-1.04-.015-2.04-3.338.724-4.042-1.61-4.042-1.61C4.422 18.07 3.633 17.7 3.633 17.7c-1.087-.744.084-.729.084-.729 1.205.084 1.838 1.236 1.838 1.236 1.07 1.835 2.809 1.305 3.495.998.108-.776.417-1.305.76-1.605-2.665-.3-5.466-1.332-5.466-5.93 0-1.31.465-2.38 1.235-3.22-.135-.303-.54-1.523.105-3.176 0 0 1.005-.322 3.3 1.23.96-.267 1.98-.399 3-.405 1.02.006 2.04.138 3 .405 2.28-1.552 3.285-1.23 3.285-1.23.645 1.653.24 2.873.12 3.176.765.84 1.23 1.91 1.23 3.22 0 4.61-2.805 5.625-5.475 5.92.42.36.81 1.096.81 2.22 0 1.606-.015 2.896-.015 3.286 0 .315.21.69.825.57C20.565 22.092 24 17.592 24 12.297c0-6.627-5.373-12-12-12"/></g>
<text x="139.0" y="217.0" text-anchor="middle" fill="#e2e8f0" font-size="13" font-weight="600">Developer</text>
<text x="139.0" y="232.0" text-anchor="middle" fill="#94a3b8" font-size="11">git push main / dev</text>
<rect x="230.0" y="147.0" width="118" height="118" rx="12" fill="#1e293b" stroke="#64748b" stroke-opacity="0.55"/>
<g stroke="#e2e8f0" stroke-width="2.6" fill="none"><rect x="276.0" y="176.0" width="26" height="19" rx="4" fill="#e2e8f0" stroke="none"/><path d="M 281.0 176.0 v-5 a 8 8 0 0 1 16 0 v5"/></g>
<text x="289.0" y="217.0" text-anchor="middle" fill="#e2e8f0" font-size="13" font-weight="600">Gitleaks</text>
<text x="289.0" y="232.0" text-anchor="middle" fill="#94a3b8" font-size="11">secrets scan</text>
<line x1="198.0" y1="206" x2="228.0" y2="206" stroke="#64748b" stroke-width="2" marker-end="url(#arr)"/>
<rect x="380.0" y="147.0" width="118" height="118" rx="12" fill="#1e293b" stroke="#4B32C3" stroke-opacity="0.55"/>
<g transform="translate(420.0,161.0) scale(1.5833)"><path fill="#4B32C3" d="M7.257 9.132L11.816 6.5a.369.369 0 0 1 .368 0l4.559 2.632a.369.369 0 0 1 .184.32v5.263a.37.37 0 0 1-.184.319l-4.559 2.632a.369.369 0 0 1-.368 0l-4.559-2.632a.369.369 0 0 1-.184-.32V9.452a.37.37 0 0 1 .184-.32M23.852 11.53l-5.446-9.475c-.198-.343-.564-.596-.96-.596H6.555c-.396 0-.762.253-.96.596L.149 11.509a1.127 1.127 0 0 0 0 1.117l5.447 9.398c.197.342.563.517.959.517h10.893c.395 0 .76-.17.959-.512l5.446-9.413a1.069 1.069 0 0 0 0-1.086m-4.51 4.556a.4.4 0 0 1-.204.338L12.2 20.426a.395.395 0 0 1-.392 0l-6.943-4.002a.4.4 0 0 1-.205-.338V8.08c0-.14.083-.269.204-.338L11.8 3.74c.12-.07.272-.07.392 0l6.943 4.003a.4.4 0 0 1 .206.338z"/></g>
<text x="439.0" y="217.0" text-anchor="middle" fill="#e2e8f0" font-size="13" font-weight="600">Lint</text>
<text x="439.0" y="232.0" text-anchor="middle" fill="#94a3b8" font-size="11">ESLint · Checkstyle</text>
<line x1="348.0" y1="206" x2="378.0" y2="206" stroke="#64748b" stroke-width="2" marker-end="url(#arr)"/>
<rect x="530.0" y="147.0" width="118" height="118" rx="12" fill="#1e293b" stroke="#25A162" stroke-opacity="0.55"/>
<g transform="translate(570.0,161.0) scale(1.5833)"><path fill="#25A162" d="M11.886 9.769c1.647 0 2.95.436 3.912 1.307.961.872 1.442 2.06 1.442 3.566 0 1.744-.548 3.107-1.643 4.09-1.088.977-2.638 1.465-4.65 1.465-1.826 0-3.26-.294-4.303-.883v-2.38a7.89 7.89 0 002.079.793c.782.186 1.509.28 2.18.28 1.184 0 2.086-.265 2.704-.794.619-.53.928-1.304.928-2.325 0-1.952-1.245-2.929-3.733-2.929-.35 0-.783.038-1.297.112-.514.067-.965.145-1.352.235l-1.174-.693.626-7.98H16.1v2.335H9.919l-.37 4.046c.262-.044.578-.096.95-.156.38-.06.843-.09 1.387-.09zM12 0C5.373 0 0 5.373 0 12a11.998 11.998 0 006.65 10.738v-3.675h.138c.01.004 4.86 2.466 8.021 0 3.163-2.468 1.62-5.785 1.08-6.557-.54-.771-3.317-2.083-5.708-1.851-2.391.231-2.391.308-2.391.308l.617-7.096 7.687-.074V.744A12 12 0 0011.999 0zm4.095.744V3.793l-7.688.074-.617 7.096s0-.077 2.391-.308c2.392-.232 5.169 1.08 5.708 1.851.54.772 2.083 4.089-1.08 6.557-3.16 2.467-8.013.004-8.02 0h-.14v3.675A12 12 0 0012 24c6.628 0 12-5.373 12-12A12.007 12.007 0 0016.35.83c-.085-.03-.17-.059-.255-.086zM6.299 22.556z"/></g>
<text x="589.0" y="217.0" text-anchor="middle" fill="#e2e8f0" font-size="13" font-weight="600">Unit Tests</text>
<text x="589.0" y="232.0" text-anchor="middle" fill="#94a3b8" font-size="11">JUnit · Karma</text>
<line x1="498.0" y1="206" x2="528.0" y2="206" stroke="#64748b" stroke-width="2" marker-end="url(#arr)"/>
<rect x="680.0" y="147.0" width="118" height="118" rx="12" fill="#1e293b" stroke="#126ED3" stroke-opacity="0.55"/>
<g transform="translate(720.0,161.0) scale(1.5833)"><path fill="#126ED3" d="M12.2656.168c-.4273 0-.7676.3551-.7676.7773 0 .4222.3513.7676.7735.7676.0268-.0144.062-.004.0918-.0059 3.9749 0 7.3782 2.9452 7.9394 6.879.0567.3861.3859.664.7618.664.4676 0 .8328-.4084.7636-.8809C21.1588 3.6786 17.0963.168 12.3594.168Zm-.3027 3.0566c-1.7538 0-3.5063.6678-4.8399 2.004-1.3747 1.3747-2.0765 3.2193-1.994 5.1347-1.1431.2935-2.2292.8795-3.125 1.7754-2.6723 2.6722-2.6723 7.0184 0 9.6855 1.3335 1.3336 3.0899 2.002 4.8456 2.002 1.7558 0 3.505-.6684 4.8438-2.002.108-.1081.2075-.2266.3105-.3398 1.2563 1.4365 3.094 2.3476 5.1484 2.3476 3.7793 0 6.8477-3.0735 6.8477-6.8476 0-3.1511-2.1943-5.9-5.2012-6.6465.0721-1.8433-.5865-3.7089-1.9922-5.1094-1.336-1.3361-3.0899-2.0039-4.8437-2.0039Zm3.752 3.1074c2.0698 2.0699 2.0698 5.4354 0 7.5-.3038.3038-.3038.7932 0 1.0918.2973.2974.7873.3045 1.0918 0 .8753-.8753 1.4572-1.925 1.7558-3.037 2.2552.628 3.8926 2.7183 3.8926 5.1073 0 2.9246-2.3782 5.3028-5.3027 5.3008-2.9245-.002-5.3027-2.382-5.3027-5.3066 0-.4274-.3461-.7715-.7735-.7715a.7699.7699 0 0 0-.7715.7715c0 1.1482.2877 2.231.7871 3.1836-.1493.2008-.308.39-.4882.5703-2.0699 2.0698-5.4373 2.0698-7.502 0-2.0698-2.0698-2.0698-5.4321 0-7.502 2.0698-2.0698 5.4321-2.0698 7.502 0 .3037.3038.7912.3038 1.0898 0 .2986-.3037.3038-.7931 0-1.0918-1.385-1.385-3.2177-2.0436-5.0352-1.9922-.0206-1.4313.525-2.7996 1.5547-3.8242 1.035-1.0349 2.394-1.5527 3.752-1.5527 1.358 0 2.715.5178 3.75 1.5527zm-3.5566.0508c-.4274 0-.7676.3552-.7676.7774 0 .4388.3555.7675.7988.7675 1.0452 0 1.9038.8494 1.914 1.8946 0 .4222.3513.7675.778.7675s.767-.3551.767-.7773c-.0103-.9216-.3761-1.792-1.0352-2.441-.659-.6492-1.5231-.999-2.455-.9887Z"/></g>
<text x="739.0" y="217.0" text-anchor="middle" fill="#e2e8f0" font-size="13" font-weight="600">SonarCloud</text>
<text x="739.0" y="232.0" text-anchor="middle" fill="#94a3b8" font-size="11">SAST</text>
<line x1="648.0" y1="206" x2="678.0" y2="206" stroke="#64748b" stroke-width="2" marker-end="url(#arr)"/>
<rect x="830.0" y="147.0" width="118" height="118" rx="12" fill="#1e293b" stroke="#e2e8f0" stroke-opacity="0.55"/>
<g transform="translate(870.0,161.0) scale(1.5833)"><path fill="#e2e8f0" d="M15.897 20.503c-.384 0-1.782-2.489-1.97-3.198-.393-1.486-.308-2.114-.285-2.314.072-.613.667-.92.703-1.748.01-.256.14-1.535.243-2.534a1.723 1.723 0 0 1-.733-.343c.676.908-.32 1.995-1.767 3.443-1.536 1.536-4.945 2.961-4.945 2.961s1.425-3.41 2.961-4.945c1.13-1.129 2.04-1.983 2.816-1.983.22 0 .427.067.627.216a1.722 1.722 0 0 1-.343-.733c-.999.103-2.278.232-2.534.244-.829.036-1.135.63-1.747.702-.07.008-.194.024-.388.024-.36 0-.963-.054-1.926-.31-.772-.203-3.648-1.84-3.14-2.045.26-.105 1.087-.176 2.175-.176 1.047 0 2.337.066 3.596.23 1.57.205 3.01.463 3.992.656.016-.053.035-.104.058-.154l-1.004-.48s-.8-.92-.715-.984a.02.02 0 0 1 .012-.003c.126 0 .767.733.829.816l.605.202-.284-.249s-.388-1.438-.287-1.472h.004c.106 0 .459 1.25.489 1.34.07.06.303.152.596.32l-.308-.79s.14-1.305.243-1.305h.003c.105.021-.02 1.089-.047 1.221l.51.783a1.31 1.31 0 0 1 .463-.082c.184 0 .374.036.558.107-.236-.502-.218-1.025.095-1.338a.84.84 0 0 1 .353-.209.462.462 0 0 1 .457-.383c.127 0 .254.05.352.148a.497.497 0 0 1 .147.335c.151-.311.329-.73.317-.867-.03-.307-.386-.852-.39-.857a.076.076 0 0 1 .064-.119c.025 0 .05.012.064.035.016.023.381.582.414.927.018.198-.21.696-.333.95a2.227 2.227 0 0 1 .873.874c.245-.12.715-.334.927-.334l.024.001c.345.033.904.399.927.414a.076.076 0 0 1-.084.128c-.005-.004-.55-.36-.857-.39h-.015c-.15 0-.552.171-.852.317.12.004.242.053.335.147a.482.482 0 0 1 .012.681.459.459 0 0 1-.247.128.845.845 0 0 1-.21.354.924.924 0 0 1-.67.255c-.212 0-.441-.055-.667-.16.132.343.142.708.025 1.02l.783.51c.095-.019.666-.088.993-.088.13 0 .222.011.228.04.02.106-1.305.247-1.305.247l-.79-.308c.168.293.26.527.32.596.091.03 1.374.392 1.34.493-.004.012-.026.017-.063.017-.283 0-1.41-.304-1.41-.304l-.248-.284.202.605c.087.065.876.755.813.841-.004.005-.009.007-.016.007-.139 0-.967-.722-.967-.722l-.481-1.004a1.18 1.18 0 0 1-.154.058c.193.982.451 2.422.656 3.992.335 2.569.26 5.261.054 5.77-.016.041-.042.06-.076.06M12 24C5.373 24 0 18.627 0 12S5.373 0 12 0s12 5.373 12 12-5.373 12-12 12m0-22.153C6.393 1.847 1.847 6.393 1.847 12S6.393 22.153 12 22.153 22.153 17.607 22.153 12 17.607 1.847 12 1.847Z"/></g>
<text x="889.0" y="217.0" text-anchor="middle" fill="#e2e8f0" font-size="13" font-weight="600">OWASP</text>
<text x="889.0" y="232.0" text-anchor="middle" fill="#94a3b8" font-size="11">dependency audit</text>
<line x1="798.0" y1="206" x2="828.0" y2="206" stroke="#64748b" stroke-width="2" marker-end="url(#arr)"/>
<rect x="980.0" y="147.0" width="118" height="118" rx="12" fill="#1e293b" stroke="#2496ED" stroke-opacity="0.55"/>
<g transform="translate(1020.0,161.0) scale(1.5833)"><path fill="#2496ED" d="M13.983 11.078h2.119a.186.186 0 00.186-.185V9.006a.186.186 0 00-.186-.186h-2.119a.185.185 0 00-.185.185v1.888c0 .102.083.185.185.185m-2.954-5.43h2.118a.186.186 0 00.186-.186V3.574a.186.186 0 00-.186-.185h-2.118a.185.185 0 00-.185.185v1.888c0 .102.082.185.185.185m0 2.716h2.118a.187.187 0 00.186-.186V6.29a.186.186 0 00-.186-.185h-2.118a.185.185 0 00-.185.185v1.887c0 .102.082.185.185.186m-2.93 0h2.12a.186.186 0 00.184-.186V6.29a.185.185 0 00-.185-.185H8.1a.185.185 0 00-.185.185v1.887c0 .102.083.185.185.186m-2.964 0h2.119a.186.186 0 00.185-.186V6.29a.185.185 0 00-.185-.185H5.136a.186.186 0 00-.186.185v1.887c0 .102.084.185.186.186m5.893 2.715h2.118a.186.186 0 00.186-.185V9.006a.186.186 0 00-.186-.186h-2.118a.185.185 0 00-.185.185v1.888c0 .102.082.185.185.185m-2.93 0h2.12a.185.185 0 00.184-.185V9.006a.185.185 0 00-.184-.186h-2.12a.185.185 0 00-.184.185v1.888c0 .102.083.185.185.185m-2.964 0h2.119a.185.185 0 00.185-.185V9.006a.185.185 0 00-.184-.186h-2.12a.186.186 0 00-.186.186v1.887c0 .102.084.185.186.185m-2.92 0h2.12a.185.185 0 00.184-.185V9.006a.185.185 0 00-.184-.186h-2.12a.185.185 0 00-.184.185v1.888c0 .102.082.185.185.185M23.763 9.89c-.065-.051-.672-.51-1.954-.51-.338.001-.676.03-1.01.087-.248-1.7-1.653-2.53-1.716-2.566l-.344-.199-.226.327c-.284.438-.49.922-.612 1.43-.23.97-.09 1.882.403 2.661-.595.332-1.55.413-1.744.42H.751a.751.751 0 00-.75.748 11.376 11.376 0 00.692 4.062c.545 1.428 1.355 2.48 2.41 3.124 1.18.723 3.1 1.137 5.275 1.137.983.003 1.963-.086 2.93-.266a12.248 12.248 0 003.823-1.389c.98-.567 1.86-1.288 2.61-2.136 1.252-1.418 1.998-2.997 2.553-4.4h.221c1.372 0 2.215-.549 2.68-1.009.309-.293.55-.65.707-1.046l.098-.288Z"/></g>
<text x="1039.0" y="217.0" text-anchor="middle" fill="#e2e8f0" font-size="13" font-weight="600">Build</text>
<text x="1039.0" y="232.0" text-anchor="middle" fill="#94a3b8" font-size="11">container image</text>
<line x1="948.0" y1="206" x2="978.0" y2="206" stroke="#64748b" stroke-width="2" marker-end="url(#arr)"/>
<rect x="1130.0" y="147.0" width="118" height="118" rx="12" fill="#1e293b" stroke="#e2e8f0" stroke-opacity="0.55"/>
<g transform="translate(1170.0,161.0) scale(1.5833)"><path fill="#e2e8f0" d="M4.375 7.311 1.962 5.918a.1.1 0 0 1 0-.174L11.828.047a.343.343 0 0 1 .344 0l9.864 5.696a.1.1 0 0 1 0 .175L19.624 7.31a.962.962 0 0 1-.052-.074c-.914-1.478-2.124-2.592-3.596-3.31-4.088-1.994-9.164-.505-11.6 3.385ZM12.262 23.899v-3.14c5.693-2.087 9.01-7.766 7.588-12.985l2.436-1.42a.1.1 0 0 1 .151.088v11.645a.1.1 0 0 1-.05.087l-9.973 5.812a.1.1 0 0 1-.152-.087Zm-.559-3.141v3.14a.1.1 0 0 1-.151.086l-9.933-5.81a.114.114 0 0 1-.056-.099V6.436a.1.1 0 0 1 .15-.087l2.44 1.41c-1.455 5.307 1.846 10.993 7.55 13ZM7.013 8.834 4.807 7.561c2.306-3.665 7.094-5.066 10.95-3.186 1.385.676 2.526 1.727 3.39 3.124l.04.062-2.195 1.268a5.57 5.57 0 0 0-2.429-2.307c-2.603-1.27-5.901-.253-7.552 2.311Zm9.337 5.2c.813-1.371 1.088-2.99.798-4.685l2.255-1.314c1.245 4.86-1.864 10.169-7.14 12.192v-3.072c1.86-.67 3.272-1.747 4.087-3.12ZM4.6 8.018l2.27 1.31c-.225 1.571.112 3.204.951 4.606.919 1.536 2.225 2.629 3.881 3.25v3.045C6.327 18.25 3.297 13.042 4.601 8.017Zm5.303 2.486-2.459-1.42c1.52-2.34 4.53-3.268 6.9-2.112a5.075 5.075 0 0 1 2.216 2.108l-2.471 1.427a2.311 2.311 0 0 0-2.03-1.195c-.825 0-1.645.43-2.156 1.192Zm4.338.522 2.443-1.408c.22 1.51-.043 2.945-.765 4.162-.735 1.238-1.998 2.224-3.658 2.856v-2.631c1.25-.691 1.968-1.771 1.98-2.979ZM8.25 13.676A6.576 6.576 0 0 1 7.34 9.6l2.446 1.412c-.016 1.271.73 2.437 1.917 2.997v2.624a6.977 6.977 0 0 1-3.453-2.956Zm3.853-.148-.137.073-.157-.075c-1.023-.504-1.524-1.606-1.557-2.417a1.99 1.99 0 0 1 .004-.23 2.153 2.153 0 0 1 1.163-.957c.508-.178 1.034-.153 1.444.071.6.327.84.797.86.86.008.156.004.253.004.256-.038.981-.63 1.863-1.624 2.419Z"/></g>
<text x="1189.0" y="217.0" text-anchor="middle" fill="#e2e8f0" font-size="13" font-weight="600">Trivy</text>
<text x="1189.0" y="232.0" text-anchor="middle" fill="#94a3b8" font-size="11">image scan</text>
<line x1="1098.0" y1="206" x2="1128.0" y2="206" stroke="#64748b" stroke-width="2" marker-end="url(#arr)"/>
<rect x="1294.0" y="147.0" width="150" height="118" rx="12" fill="#1e293b" stroke="#e2e8f0" stroke-opacity="0.55"/>
<g transform="translate(1350.0,161.0) scale(1.5833)"><path fill="#e2e8f0" d="M12 .297c-6.63 0-12 5.373-12 12 0 5.303 3.438 9.8 8.205 11.385.6.113.82-.258.82-.577 0-.285-.01-1.04-.015-2.04-3.338.724-4.042-1.61-4.042-1.61C4.422 18.07 3.633 17.7 3.633 17.7c-1.087-.744.084-.729.084-.729 1.205.084 1.838 1.236 1.838 1.236 1.07 1.835 2.809 1.305 3.495.998.108-.776.417-1.305.76-1.605-2.665-.3-5.466-1.332-5.466-5.93 0-1.31.465-2.38 1.235-3.22-.135-.303-.54-1.523.105-3.176 0 0 1.005-.322 3.3 1.23.96-.267 1.98-.399 3-.405 1.02.006 2.04.138 3 .405 2.28-1.552 3.285-1.23 3.285-1.23.645 1.653.24 2.873.12 3.176.765.84 1.23 1.91 1.23 3.22 0 4.61-2.805 5.625-5.475 5.92.42.36.81 1.096.81 2.22 0 1.606-.015 2.896-.015 3.286 0 .315.21.69.825.57C20.565 22.092 24 17.592 24 12.297c0-6.627-5.373-12-12-12"/></g>
<text x="1369.0" y="217.0" text-anchor="middle" fill="#e2e8f0" font-size="13" font-weight="600">GHCR</text>
<line x1="1248.0" y1="206" x2="1292.0" y2="206" stroke="#64748b" stroke-width="2" marker-end="url(#arr)"/>
<rect x="1313.0" y="224" width="52" height="18" rx="9" fill="#166534"/><text x="1339.0" y="237" text-anchor="middle" fill="#dcfce7" font-size="11" font-weight="600">:prod</text>
<rect x="1375.0" y="224" width="52" height="18" rx="9" fill="#1e40af"/><text x="1401.0" y="237" text-anchor="middle" fill="#dbeafe" font-size="11" font-weight="600">:dev</text>
<rect x="30" y="322" width="1500" height="400" rx="18" fill="#131c31" stroke="#1e293b"/>
<rect x="30" y="322" width="6" height="400" rx="3" fill="#EF7B4D"/>
<text x="54" y="352" fill="#94a3b8" font-size="14" font-weight="700" letter-spacing="2">CD — GITOPS · ARGOCD PULLS, NOTHING IS PUSHED</text>
<rect x="65.0" y="473.0" width="150" height="118" rx="12" fill="#1e293b" stroke="#e2e8f0" stroke-opacity="0.55"/>
<g transform="translate(121.0,487.0) scale(1.5833)"><path fill="#e2e8f0" d="M12 .297c-6.63 0-12 5.373-12 12 0 5.303 3.438 9.8 8.205 11.385.6.113.82-.258.82-.577 0-.285-.01-1.04-.015-2.04-3.338.724-4.042-1.61-4.042-1.61C4.422 18.07 3.633 17.7 3.633 17.7c-1.087-.744.084-.729.084-.729 1.205.084 1.838 1.236 1.838 1.236 1.07 1.835 2.809 1.305 3.495.998.108-.776.417-1.305.76-1.605-2.665-.3-5.466-1.332-5.466-5.93 0-1.31.465-2.38 1.235-3.22-.135-.303-.54-1.523.105-3.176 0 0 1.005-.322 3.3 1.23.96-.267 1.98-.399 3-.405 1.02.006 2.04.138 3 .405 2.28-1.552 3.285-1.23 3.285-1.23.645 1.653.24 2.873.12 3.176.765.84 1.23 1.91 1.23 3.22 0 4.61-2.805 5.625-5.475 5.92.42.36.81 1.096.81 2.22 0 1.606-.015 2.896-.015 3.286 0 .315.21.69.825.57C20.565 22.092 24 17.592 24 12.297c0-6.627-5.373-12-12-12"/></g>
<text x="140" y="543.0" text-anchor="middle" fill="#e2e8f0" font-size="13" font-weight="600">Git repo</text>
<text x="140" y="558.0" text-anchor="middle" fill="#94a3b8" font-size="11">k8s/ manifests</text>
<rect x="65.0" y="607.0" width="150" height="110" rx="12" fill="#1e293b" stroke="#43B02A" stroke-opacity="0.55"/>
<g transform="translate(125.0,621.0) scale(1.2500)"><path fill="#43B02A" d="M23.174 3.468l-7.416 8.322a.228.228 0 0 1-.33 0l-3.786-3.9a.228.228 0 0 1 0-.282L12.872 6a.228.228 0 0 1 .366 0l2.106 2.346a.228.228 0 0 0 .342 0l5.94-8.094A.162.162 0 0 0 21.5 0H.716a.174.174 0 0 0-.174.174v23.652A.174.174 0 0 0 .716 24h22.566a.174.174 0 0 0 .174-.174V3.6a.162.162 0 0 0-.282-.132zM6.932 21.366a5.706 5.706 0 0 1-4.05-1.44.222.222 0 0 1 0-.288l.882-1.236a.222.222 0 0 1 .33-.036 4.338 4.338 0 0 0 2.964 1.158c1.158 0 1.722-.534 1.722-1.098 0-1.752-5.7-.552-5.7-4.278 0-1.65 1.428-3 3.756-3a5.568 5.568 0 0 1 3.708 1.242.222.222 0 0 1 0 .3l-.906 1.2a.222.222 0 0 1-.318.036 4.29 4.29 0 0 0-2.706-.936c-.906 0-1.41.402-1.41.996 0 1.572 5.688.522 5.688 4.2.006 1.812-1.284 3.18-3.96 3.18zm12.438-3.432a.192.192 0 0 1-.192.192h-5.202a.06.06 0 0 0-.06.066 1.986 1.986 0 0 0 2.106 1.638 3.264 3.264 0 0 0 1.8-.6.192.192 0 0 1 .276.042l.636.93a.198.198 0 0 1-.042.264 4.71 4.71 0 0 1-2.892.9 3.726 3.726 0 0 1-3.93-3.87 3.744 3.744 0 0 1 3.81-3.852c2.196 0 3.684 1.644 3.684 4.05zm-3.684-2.748a1.758 1.758 0 0 0-1.8 1.56.06.06 0 0 0 .06.066h3.492a.06.06 0 0 0 .06-.066 1.698 1.698 0 0 0-1.812-1.56Z"/></g>
<text x="140" y="669.0" text-anchor="middle" fill="#e2e8f0" font-size="13" font-weight="600">E2E + ZAP</text>
<text x="140" y="684.0" text-anchor="middle" fill="#94a3b8" font-size="11">DAST · weekly</text>
<rect x="315.0" y="457.0" width="170" height="150" rx="12" fill="#1e293b" stroke="#EF7B4D" stroke-opacity="0.55"/>
<g transform="translate(374.0,471.0) scale(2.1667)"><path fill="#EF7B4D" d="M12.581 0c.436.037.871.1 1.299.186 1.679.383 3.121 1.213 4.382 2.365 1.161 1.06 1.917 2.372 2.335 3.881.089.321.216.56.586.624.205.035.238.245.239.43.003.646.002 1.294.002 1.94l-.002 1.21c-.001.356-.116.479-.466.474-.211-.003-.293.119-.344.291-.146.489-.33.966-.552 1.426-.818 1.682-2.084 2.938-3.688 3.87-.077.045-.155.088-.233.131-.252.137-.258.146-.155.415.114.299.358.529.664.625.269.096.553.134.827.21a.672.672 0 0 1 .236.094c-.066.082-.156.067-.231.082-.36.073-.713.184-1.086.17a1.275 1.275 0 0 1-.438-.064c-.114-.045-.152-.006-.176.109a5.354 5.354 0 0 0-.084.92c-.015.617-.071 1.23-.112 1.844-.042.598-.018.651.558.842.281.094.563.187.842.286.069.024.15.038.192.117-.04.057-.098.035-.146.035-.493.003-.985.005-1.478.001-.524-.005-.806-.282-.845-.803-.055-.762-.12-1.524-.182-2.286a.947.947 0 0 0-.026-.12c-.079.455-.065.879-.084 1.298-.023.528-.008 1.057-.007 1.584 0 .27.086.388.335.483.359.135.711.295 1.114.262.141-.012.276.062.402.129.032.017.073.033.069.073-.004.043-.049.047-.084.045-.657-.019-1.317.065-1.972-.028-.323-.046-.533-.236-.631-.552-.094-.303-.114-.617-.137-.93-.046-.626-.078-1.253-.116-1.88a.222.222 0 0 0-.061-.171.282.282 0 0 0-.031.193c-.002.956-.002 1.911-.001 2.866 0 .388.123.575.494.708.481.172.976.298 1.47.423.11.028.225.047.242.192h-1.852c-.051-.01-.103-.022-.155-.03-.701-.1-1.001-.372-1.143-1.042l-.067-.331-.226-1.103c-.069.12-.118.25-.144.386-.083.399-.151.802-.243 1.2-.113.493-.444.763-.932.857l-.33.063H8.558c.057-.171.216-.185.355-.221.476-.127.96-.223 1.417-.409a.603.603 0 0 0 .397-.521c.058-.435.002-.865-.013-1.296a1.528 1.528 0 0 0-.078-.315.405.405 0 0 0-.071.207c-.026.296-.049.591-.075.886-.038.432-.273.716-.679.81a1.702 1.702 0 0 1-.37.045c-.557.003-1.115-.001-1.673-.005-.048 0-.109.019-.148-.065.178-.103.377-.168.582-.187a5.67 5.67 0 0 0 .939-.193c.42-.114.522-.249.512-.687-.023-.931-.091-1.86-.069-2.791.004-.184.001-.368.001-.551a2.387 2.387 0 0 0-.05.385 40.299 40.299 0 0 1-.186 2.623c-.052.513-.296.748-.804.805-.446.051-.889.002-1.332-.02-.108-.006-.234.012-.339-.064.043-.066.106-.07.16-.087.362-.115.725-.224 1.086-.344.246-.081.35-.235.355-.492a2.241 2.241 0 0 0-.003-.232 45.315 45.315 0 0 1-.105-2.149 5.487 5.487 0 0 0-.035-.478c-.024-.188-.131-.287-.295-.258-.505.092-.99-.006-1.473-.139-.059-.016-.134-.007-.178-.088a.986.986 0 0 1 .285-.09c.255-.052.507-.121.753-.208.312-.112.564-.347.695-.651.089-.203.056-.317-.112-.398-1.418-.683-2.512-1.73-3.391-3.017a8.152 8.152 0 0 1-1.123-2.447c-.067-.246-.156-.3-.383-.26-.306.053-.401.006-.535-.273v-3.49c.144-.303.205-.341.534-.329.235.01.247-.004.309-.242.396-1.508 1.082-2.861 2.171-3.988C6.9 1.42 8.523.631 10.34.203c.456-.108.922-.15 1.387-.203h.854Zm7.974 8.948a7.34 7.34 0 0 0-.048-.938 8.353 8.353 0 0 0-.099-.65c-.598-2.964-2.344-5.02-5.051-6.268-1.553-.715-3.21-.835-4.878-.511-3.248.633-5.396 2.583-6.539 5.652-.436 1.173-.495 2.406-.37 3.65.087.935.339 1.846.745 2.694.585 1.213 1.444 2.207 2.477 3.058.343.286.719.528 1.121.719.235.111.247.105.245-.146.006-.16.003-.32-.009-.48-.125-1.02-.142-2.045-.169-3.069a.392.392 0 0 0-.184-.353c-.385-.268-.713-.592-.921-1.019-.474-.97-.372-2.361.813-3.215.136-.097.217-.19.198-.373a1.724 1.724 0 0 1 .031-.442c.177-1.187.748-2.138 1.722-2.84.68-.492 1.442-.772 2.286-.782.483-.007.953.11 1.414.244 1.609.467 2.846 2.07 2.845 3.697a.64.64 0 0 0 .268.565c.463.371.821.83.943 1.426.22 1.077-.083 1.982-.979 2.634-.266.194-.347.406-.333.698.002.047 0 .095-.002.142l-.062 1.439c-.025.586-.138 1.165-.117 1.754.008.223.006.226.201.128a7.46 7.46 0 0 0 2.393-1.903c1.32-1.577 2.074-3.372 2.059-5.511ZM9.117 12.102c1.489.021 2.443-1.578 1.716-2.879a1.937 1.937 0 0 0-1.699-.991c-1.094-.004-1.954.822-1.958 1.881-.005 1.148.813 1.985 1.941 1.989Zm5.794 0c1.101.002 1.935-.823 1.935-1.917 0-1.091-.846-1.949-1.92-1.947-1.064.003-1.94.866-1.943 1.915-.003 1.105.831 1.948 1.928 1.949Zm-1.472 1.937c-.208.128-.407.277-.63.384-.536.257-1.063.257-1.579-.048-.158-.094-.308-.201-.464-.298-.047-.028-.092-.103-.15-.062-.044.03-.01.1-.001.151.037.179.064.362.082.544.027.565.293.992.742 1.31a.984.984 0 0 0 .791.186c.565-.119 1.025-.614 1.124-1.218.043-.266.005-.544.109-.803a.133.133 0 0 0-.024-.146Zm-8.78-4.92c-.012-1.102.143-2.055.54-2.961.633-1.443 1.642-2.553 2.98-3.374a.378.378 0 0 1 .459.067c.06.06.036.118.01.178a1.09 1.09 0 0 1-.48.51c-1.079.639-1.829 1.571-2.357 2.688a6.325 6.325 0 0 0-.618 2.986c.055 1.309.439 2.516 1.213 3.588.088.104.148.23.173.365.01.08.059.168-.031.228a.312.312 0 0 1-.288.041.502.502 0 0 1-.234-.185c-.72-.979-1.193-2.056-1.331-3.273-.036-.326-.004-.653-.036-.858ZM8.94 2.34a.373.373 0 0 1 .378-.382c.211.001.409.226.416.473.004.138-.309.39-.476.386-.189-.005-.318-.2-.318-.477Zm-.465 7.48a.609.609 0 0 1 .586-.631c.38-.003.671.271.675.633.004.356-.27.622-.639.621-.38-.002-.621-.241-.622-.623Zm6.496.623c-.381-.002-.625-.255-.621-.646a.635.635 0 0 1 .596-.613.656.656 0 0 1 .669.643c.001.354-.275.618-.644.616Z"/></g>
<text x="400" y="541.0" text-anchor="middle" fill="#e2e8f0" font-size="13" font-weight="600">ArgoCD</text>
<text x="400" y="556.0" text-anchor="middle" fill="#94a3b8" font-size="11">app-of-apps · self-heal</text>
<rect x="560" y="380" width="950" height="320" rx="16" fill="#172136" stroke="#3b82f6" stroke-opacity="0.45"/>
<g transform="translate(580,394) scale(1.2500)"><path fill="#FFC61C" d="M21.46 2.172H2.54A2.548 2.548 0 0 0 0 4.712v14.575a2.548 2.548 0 0 0 2.54 2.54h18.92a2.548 2.548 0 0 0 2.54-2.54V4.713a2.548 2.548 0 0 0-2.54-2.54ZM10.14 16.465 5.524 19.15a1.235 1.235 0 1 1-1.242-2.137L8.9 14.33a1.235 1.235 0 1 1 1.241 2.136zm1.817-4.088h-.006a1.235 1.235 0 0 1-1.23-1.24l.023-5.32a1.236 1.236 0 0 1 1.236-1.23h.005a1.235 1.235 0 0 1 1.23 1.241l-.023 5.32a1.236 1.236 0 0 1-1.235 1.23zm8.17 6.32a1.235 1.235 0 0 1-1.688.453l-4.624-2.67a1.235 1.235 0 1 1 1.235-2.14l4.624 2.67a1.235 1.235 0 0 1 .452 1.688z"/></g>
<text x="620" y="415" fill="#e2e8f0" font-size="15" font-weight="700">k3s cluster</text>
<text x="725" y="415" fill="#94a3b8" font-size="12">on-premises · 3 nodes</text>
<rect x="1150" y="392" width="170" height="30" rx="15" fill="#1e293b" stroke="#009639" stroke-opacity="0.6"/>
<g transform="translate(1160,398) scale(0.7500)"><path fill="#009639" d="M12 0L1.605 6v12L12 24l10.395-6V6L12 0zm6 16.59c0 .705-.646 1.29-1.529 1.29-.631 0-1.351-.255-1.801-.81l-6-7.141v6.66c0 .721-.57 1.29-1.274 1.29H7.32c-.721 0-1.29-.6-1.29-1.29V7.41c0-.705.63-1.29 1.5-1.29.646 0 1.38.255 1.83.81l5.97 7.141V7.41c0-.721.6-1.29 1.29-1.29h.075c.72 0 1.29.6 1.29 1.29v9.18H18z"/></g>
<text x="1186" y="412" fill="#e2e8f0" font-size="12">NGINX Ingress</text>
<rect x="1330" y="392" width="168" height="30" rx="15" fill="#1e293b" stroke="#003A70" stroke-opacity="0.9"/>
<g transform="translate(1340,398) scale(0.7500)"><path fill="#e2e8f0" d="M11.9914 0a.8829.8829 0 00-.8718.817v3.0209A.8829.8829 0 0012 4.7207a.8829.8829 0 00.8803-.8803V.817a.8829.8829 0 00-.889-.817zm7.7048 3.1089a.8804.8804 0 00-.5214.1742l-2.374 1.9482a.8804.8804 0 00.5592 1.5622.8794.8794 0 00.5592-.2001l2.3714-1.9506a.8804.8804 0 00-.5944-1.534zm-15.3763.0133a.8829.8829 0 00-.611 1.5206l2.37 1.9506a.876.876 0 00.5606.2001v-.002a.8804.8804 0 00.5597-1.5602L4.8277 3.2831a.8829.8829 0 00-.5078-.161zm7.6598 3.2275a5.0456 5.0456 0 00-5.0262 5.0455v1.4876H5.787a.9672.9672 0 00-.9647.9643v9.1887a.9672.9672 0 00.9647.9643H18.213a.9672.9672 0 00.9643-.9643v-9.1907a.9672.9672 0 00-.9643-.9623h-1.1684v-1.4876a5.0456 5.0456 0 00-5.0649-5.0455zm.0127 2.8933a2.1522 2.1522 0 012.1593 2.1522v1.4876H9.8473v-1.4876a2.1522 2.1522 0 012.145-2.1522zm7.3812.5033a.8829.8829 0 10.0705 1.7632h3.0267a.8829.8829 0 000-1.7609H19.444a.8829.8829 0 00-.0705-.0023zm-17.8444.0023a.8829.8829 0 000 1.7609h2.9983a.8829.8829 0 000-1.7609zm10.4596 6.7746a1.2792 1.2792 0 01.641 2.3926v1.2453a.6298.6298 0 01-1.2595 0v-1.2453a1.2792 1.2792 0 01.6185-2.3926z"/></g>
<text x="1366" y="412" fill="#e2e8f0" font-size="12">cert-manager TLS</text>
<rect x="590" y="442" width="280" height="200" rx="12" fill="#1e293b" stroke="#4ade80" stroke-opacity="0.6"/>
<text x="730.0" y="468" text-anchor="middle" fill="#4ade80" font-size="13" font-weight="700">namespace: prod</text>
<g transform="translate(619.6666666666666,498) scale(1.4167)"><path fill="#e2e8f0" d="M16.712 17.711H7.288l-1.204 2.916L12 24l5.916-3.373-1.204-2.916ZM14.692 0l7.832 16.855.814-12.856L14.692 0ZM9.308 0 .662 3.999l.814 12.856L9.308 0Zm-.405 13.93h6.198L12 6.396 8.903 13.93Z"/></g>
<text x="636.6666666666666" y="554" text-anchor="middle" fill="#cbd5e1" font-size="11">Angular</text>
<g transform="translate(713.0,498) scale(1.4167)"><path fill="#6DB33F" d="m23.693 10.7058-4.73-8.1844c-.4094-.7106-1.4166-1.2942-2.2402-1.2942H7.2725c-.819 0-1.8308.5836-2.2402 1.2942L.307 10.7058c-.4095.7106-.4095 1.873 0 2.5837l4.7252 8.189c.4094.7107 1.4166 1.2943 2.2402 1.2943h9.455c.819 0 1.826-.5836 2.2402-1.2942l4.7252-8.189c.4095-.7107.4095-1.8732 0-2.5838zM10.9763 5.7547c0-.5365.4377-.9742.9742-.9742s.9742.4377.9742.9742v5.8217c0 .5366-.4377.9742-.9742.9742s-.9742-.4376-.9742-.9742zm.9742 12.4294c-3.6427 0-6.6077-2.965-6.6077-6.6077.0047-2.0896.993-4.0521 2.6685-5.304a.8657.8657 0 0 1 1.2142.1788.8657.8657 0 0 1-.1788 1.2143c-2.1602 1.6048-2.612 4.6592-1.0072 6.8194 1.6049 2.1603 4.6593 2.612 6.8195 1.0072 1.2378-.9177 1.9673-2.372 1.9673-3.9157a4.8972 4.8972 0 0 0-1.9861-3.925c-.386-.2824-.466-.8284-.1836-1.2143.2824-.386.8283-.466 1.2143-.1835 1.6895 1.2471 2.6826 3.2238 2.6873 5.3228 0 3.6474-2.965 6.6077-6.6077 6.6077z"/></g>
<text x="730.0" y="554" text-anchor="middle" fill="#cbd5e1" font-size="11">Spring</text>
<g transform="translate(806.3333333333333,498) scale(1.4167)"><path fill="#4169E1" d="M23.5594 14.7228a.5269.5269 0 0 0-.0563-.1191c-.139-.2632-.4768-.3418-1.0074-.2321-1.6533.3411-2.2935.1312-2.5256-.0191 1.342-2.0482 2.445-4.522 3.0411-6.8297.2714-1.0507.7982-3.5237.1222-4.7316a1.5641 1.5641 0 0 0-.1509-.235C21.6931.9086 19.8007.0248 17.5099.0005c-1.4947-.0158-2.7705.3461-3.1161.4794a9.449 9.449 0 0 0-.5159-.0816 8.044 8.044 0 0 0-1.3114-.1278c-1.1822-.0184-2.2038.2642-3.0498.8406-.8573-.3211-4.7888-1.645-7.2219.0788C.9359 2.1526.3086 3.8733.4302 6.3043c.0409.818.5069 3.334 1.2423 5.7436.4598 1.5065.9387 2.7019 1.4334 3.582.553.9942 1.1259 1.5933 1.7143 1.7895.4474.1491 1.1327.1441 1.8581-.7279.8012-.9635 1.5903-1.8258 1.9446-2.2069.4351.2355.9064.3625 1.39.3772a.0569.0569 0 0 0 .0004.0041 11.0312 11.0312 0 0 0-.2472.3054c-.3389.4302-.4094.5197-1.5002.7443-.3102.064-1.1344.2339-1.1464.8115-.0025.1224.0329.2309.0919.3268.2269.4231.9216.6097 1.015.6331 1.3345.3335 2.5044.092 3.3714-.6787-.017 2.231.0775 4.4174.3454 5.0874.2212.5529.7618 1.9045 2.4692 1.9043.2505 0 .5263-.0291.8296-.0941 1.7819-.3821 2.5557-1.1696 2.855-2.9059.1503-.8707.4016-2.8753.5388-4.1012.0169-.0703.0357-.1207.057-.1362.0007-.0005.0697-.0471.4272.0307a.3673.3673 0 0 0 .0443.0068l.2539.0223.0149.001c.8468.0384 1.9114-.1426 2.5312-.4308.6438-.2988 1.8057-1.0323 1.5951-1.6698zM2.371 11.8765c-.7435-2.4358-1.1779-4.8851-1.2123-5.5719-.1086-2.1714.4171-3.6829 1.5623-4.4927 1.8367-1.2986 4.8398-.5408 6.108-.13-.0032.0032-.0066.0061-.0098.0094-2.0238 2.044-1.9758 5.536-1.9708 5.7495-.0002.0823.0066.1989.0162.3593.0348.5873.0996 1.6804-.0735 2.9184-.1609 1.1504.1937 2.2764.9728 3.0892.0806.0841.1648.1631.2518.2374-.3468.3714-1.1004 1.1926-1.9025 2.1576-.5677.6825-.9597.5517-1.0886.5087-.3919-.1307-.813-.5871-1.2381-1.3223-.4796-.839-.9635-2.0317-1.4155-3.5126zm6.0072 5.0871c-.1711-.0428-.3271-.1132-.4322-.1772.0889-.0394.2374-.0902.4833-.1409 1.2833-.2641 1.4815-.4506 1.9143-1.0002.0992-.126.2116-.2687.3673-.4426a.3549.3549 0 0 0 .0737-.1298c.1708-.1513.2724-.1099.4369-.0417.156.0646.3078.26.3695.4752.0291.1016.0619.2945-.0452.4444-.9043 1.2658-2.2216 1.2494-3.1676 1.0128zm2.094-3.988-.0525.141c-.133.3566-.2567.6881-.3334 1.003-.6674-.0021-1.3168-.2872-1.8105-.8024-.6279-.6551-.9131-1.5664-.7825-2.5004.1828-1.3079.1153-2.4468.079-3.0586-.005-.0857-.0095-.1607-.0122-.2199.2957-.2621 1.6659-.9962 2.6429-.7724.4459.1022.7176.4057.8305.928.5846 2.7038.0774 3.8307-.3302 4.7363-.084.1866-.1633.3629-.2311.5454zm7.3637 4.5725c-.0169.1768-.0358.376-.0618.5959l-.146.4383a.3547.3547 0 0 0-.0182.1077c-.0059.4747-.054.6489-.115.8693-.0634.2292-.1353.4891-.1794 1.0575-.11 1.4143-.8782 2.2267-2.4172 2.5565-1.5155.3251-1.7843-.4968-2.0212-1.2217a6.5824 6.5824 0 0 0-.0769-.2266c-.2154-.5858-.1911-1.4119-.1574-2.5551.0165-.5612-.0249-1.9013-.3302-2.6462.0044-.2932.0106-.5909.019-.8918a.3529.3529 0 0 0-.0153-.1126 1.4927 1.4927 0 0 0-.0439-.208c-.1226-.4283-.4213-.7866-.7797-.9351-.1424-.059-.4038-.1672-.7178-.0869.067-.276.1831-.5875.309-.9249l.0529-.142c.0595-.16.134-.3257.213-.5012.4265-.9476 1.0106-2.2453.3766-5.1772-.2374-1.0981-1.0304-1.6343-2.2324-1.5098-.7207.0746-1.3799.3654-1.7088.5321a5.6716 5.6716 0 0 0-.1958.1041c.0918-1.1064.4386-3.1741 1.7357-4.4823a4.0306 4.0306 0 0 1 .3033-.276.3532.3532 0 0 0 .1447-.0644c.7524-.5706 1.6945-.8506 2.802-.8325.4091.0067.8017.0339 1.1742.081 1.939.3544 3.2439 1.4468 4.0359 2.3827.8143.9623 1.2552 1.9315 1.4312 2.4543-1.3232-.1346-2.2234.1268-2.6797.779-.9926 1.4189.543 4.1729 1.2811 5.4964.1353.2426.2522.4522.2889.5413.2403.5825.5515.9713.7787 1.2552.0696.087.1372.1714.1885.245-.4008.1155-1.1208.3825-1.0552 1.717-.0123.1563-.0423.4469-.0834.8148-.0461.2077-.0702.4603-.0994.7662zm.8905-1.6211c-.0405-.8316.2691-.9185.5967-1.0105a2.8566 2.8566 0 0 0 .135-.0406 1.202 1.202 0 0 0 .1342.103c.5703.3765 1.5823.4213 3.0068.1344-.2016.1769-.5189.3994-.9533.6011-.4098.1903-1.0957.333-1.7473.3636-.7197.0336-1.0859-.0807-1.1721-.151zm.5695-9.2712c-.0059.3508-.0542.6692-.1054 1.0017-.055.3576-.112.7274-.1264 1.1762-.0142.4368.0404.8909.0932 1.3301.1066.887.216 1.8003-.2075 2.7014a3.5272 3.5272 0 0 1-.1876-.3856c-.0527-.1276-.1669-.3326-.3251-.6162-.6156-1.1041-2.0574-3.6896-1.3193-4.7446.3795-.5427 1.3408-.5661 2.1781-.463zm.2284 7.0137a12.3762 12.3762 0 0 0-.0853-.1074l-.0355-.0444c.7262-1.1995.5842-2.3862.4578-3.4385-.0519-.4318-.1009-.8396-.0885-1.2226.0129-.4061.0666-.7543.1185-1.0911.0639-.415.1288-.8443.1109-1.3505.0134-.0531.0188-.1158.0118-.1902-.0457-.4855-.5999-1.938-1.7294-3.253-.6076-.7073-1.4896-1.4972-2.6889-2.0395.5251-.1066 1.2328-.2035 2.0244-.1859 2.0515.0456 3.6746.8135 4.8242 2.2824a.908.908 0 0 1 .0667.1002c.7231 1.3556-.2762 6.2751-2.9867 10.5405zm-8.8166-6.1162c-.025.1794-.3089.4225-.6211.4225a.5821.5821 0 0 1-.0809-.0056c-.1873-.026-.3765-.144-.5059-.3156-.0458-.0605-.1203-.178-.1055-.2844.0055-.0401.0261-.0985.0925-.1488.1182-.0894.3518-.1226.6096-.0867.3163.0441.6426.1938.6113.4186zm7.9305-.4114c.0111.0792-.049.201-.1531.3102-.0683.0717-.212.1961-.4079.2232a.5456.5456 0 0 1-.075.0052c-.2935 0-.5414-.2344-.5607-.3717-.024-.1765.2641-.3106.5611-.352.297-.0414.6111.0088.6356.1851z"/></g>
<text x="823.3333333333333" y="554" text-anchor="middle" fill="#cbd5e1" font-size="11">Postgres</text>
<rect x="900" y="442" width="280" height="200" rx="12" fill="#1e293b" stroke="#60a5fa" stroke-opacity="0.6"/>
<text x="1040.0" y="468" text-anchor="middle" fill="#60a5fa" font-size="13" font-weight="700">namespace: dev</text>
<g transform="translate(929.6666666666666,498) scale(1.4167)"><path fill="#e2e8f0" d="M16.712 17.711H7.288l-1.204 2.916L12 24l5.916-3.373-1.204-2.916ZM14.692 0l7.832 16.855.814-12.856L14.692 0ZM9.308 0 .662 3.999l.814 12.856L9.308 0Zm-.405 13.93h6.198L12 6.396 8.903 13.93Z"/></g>
<text x="946.6666666666666" y="554" text-anchor="middle" fill="#cbd5e1" font-size="11">Angular</text>
<g transform="translate(1023.0,498) scale(1.4167)"><path fill="#6DB33F" d="m23.693 10.7058-4.73-8.1844c-.4094-.7106-1.4166-1.2942-2.2402-1.2942H7.2725c-.819 0-1.8308.5836-2.2402 1.2942L.307 10.7058c-.4095.7106-.4095 1.873 0 2.5837l4.7252 8.189c.4094.7107 1.4166 1.2943 2.2402 1.2943h9.455c.819 0 1.826-.5836 2.2402-1.2942l4.7252-8.189c.4095-.7107.4095-1.8732 0-2.5838zM10.9763 5.7547c0-.5365.4377-.9742.9742-.9742s.9742.4377.9742.9742v5.8217c0 .5366-.4377.9742-.9742.9742s-.9742-.4376-.9742-.9742zm.9742 12.4294c-3.6427 0-6.6077-2.965-6.6077-6.6077.0047-2.0896.993-4.0521 2.6685-5.304a.8657.8657 0 0 1 1.2142.1788.8657.8657 0 0 1-.1788 1.2143c-2.1602 1.6048-2.612 4.6592-1.0072 6.8194 1.6049 2.1603 4.6593 2.612 6.8195 1.0072 1.2378-.9177 1.9673-2.372 1.9673-3.9157a4.8972 4.8972 0 0 0-1.9861-3.925c-.386-.2824-.466-.8284-.1836-1.2143.2824-.386.8283-.466 1.2143-.1835 1.6895 1.2471 2.6826 3.2238 2.6873 5.3228 0 3.6474-2.965 6.6077-6.6077 6.6077z"/></g>
<text x="1040.0" y="554" text-anchor="middle" fill="#cbd5e1" font-size="11">Spring</text>
<g transform="translate(1116.3333333333335,498) scale(1.4167)"><path fill="#4169E1" d="M23.5594 14.7228a.5269.5269 0 0 0-.0563-.1191c-.139-.2632-.4768-.3418-1.0074-.2321-1.6533.3411-2.2935.1312-2.5256-.0191 1.342-2.0482 2.445-4.522 3.0411-6.8297.2714-1.0507.7982-3.5237.1222-4.7316a1.5641 1.5641 0 0 0-.1509-.235C21.6931.9086 19.8007.0248 17.5099.0005c-1.4947-.0158-2.7705.3461-3.1161.4794a9.449 9.449 0 0 0-.5159-.0816 8.044 8.044 0 0 0-1.3114-.1278c-1.1822-.0184-2.2038.2642-3.0498.8406-.8573-.3211-4.7888-1.645-7.2219.0788C.9359 2.1526.3086 3.8733.4302 6.3043c.0409.818.5069 3.334 1.2423 5.7436.4598 1.5065.9387 2.7019 1.4334 3.582.553.9942 1.1259 1.5933 1.7143 1.7895.4474.1491 1.1327.1441 1.8581-.7279.8012-.9635 1.5903-1.8258 1.9446-2.2069.4351.2355.9064.3625 1.39.3772a.0569.0569 0 0 0 .0004.0041 11.0312 11.0312 0 0 0-.2472.3054c-.3389.4302-.4094.5197-1.5002.7443-.3102.064-1.1344.2339-1.1464.8115-.0025.1224.0329.2309.0919.3268.2269.4231.9216.6097 1.015.6331 1.3345.3335 2.5044.092 3.3714-.6787-.017 2.231.0775 4.4174.3454 5.0874.2212.5529.7618 1.9045 2.4692 1.9043.2505 0 .5263-.0291.8296-.0941 1.7819-.3821 2.5557-1.1696 2.855-2.9059.1503-.8707.4016-2.8753.5388-4.1012.0169-.0703.0357-.1207.057-.1362.0007-.0005.0697-.0471.4272.0307a.3673.3673 0 0 0 .0443.0068l.2539.0223.0149.001c.8468.0384 1.9114-.1426 2.5312-.4308.6438-.2988 1.8057-1.0323 1.5951-1.6698zM2.371 11.8765c-.7435-2.4358-1.1779-4.8851-1.2123-5.5719-.1086-2.1714.4171-3.6829 1.5623-4.4927 1.8367-1.2986 4.8398-.5408 6.108-.13-.0032.0032-.0066.0061-.0098.0094-2.0238 2.044-1.9758 5.536-1.9708 5.7495-.0002.0823.0066.1989.0162.3593.0348.5873.0996 1.6804-.0735 2.9184-.1609 1.1504.1937 2.2764.9728 3.0892.0806.0841.1648.1631.2518.2374-.3468.3714-1.1004 1.1926-1.9025 2.1576-.5677.6825-.9597.5517-1.0886.5087-.3919-.1307-.813-.5871-1.2381-1.3223-.4796-.839-.9635-2.0317-1.4155-3.5126zm6.0072 5.0871c-.1711-.0428-.3271-.1132-.4322-.1772.0889-.0394.2374-.0902.4833-.1409 1.2833-.2641 1.4815-.4506 1.9143-1.0002.0992-.126.2116-.2687.3673-.4426a.3549.3549 0 0 0 .0737-.1298c.1708-.1513.2724-.1099.4369-.0417.156.0646.3078.26.3695.4752.0291.1016.0619.2945-.0452.4444-.9043 1.2658-2.2216 1.2494-3.1676 1.0128zm2.094-3.988-.0525.141c-.133.3566-.2567.6881-.3334 1.003-.6674-.0021-1.3168-.2872-1.8105-.8024-.6279-.6551-.9131-1.5664-.7825-2.5004.1828-1.3079.1153-2.4468.079-3.0586-.005-.0857-.0095-.1607-.0122-.2199.2957-.2621 1.6659-.9962 2.6429-.7724.4459.1022.7176.4057.8305.928.5846 2.7038.0774 3.8307-.3302 4.7363-.084.1866-.1633.3629-.2311.5454zm7.3637 4.5725c-.0169.1768-.0358.376-.0618.5959l-.146.4383a.3547.3547 0 0 0-.0182.1077c-.0059.4747-.054.6489-.115.8693-.0634.2292-.1353.4891-.1794 1.0575-.11 1.4143-.8782 2.2267-2.4172 2.5565-1.5155.3251-1.7843-.4968-2.0212-1.2217a6.5824 6.5824 0 0 0-.0769-.2266c-.2154-.5858-.1911-1.4119-.1574-2.5551.0165-.5612-.0249-1.9013-.3302-2.6462.0044-.2932.0106-.5909.019-.8918a.3529.3529 0 0 0-.0153-.1126 1.4927 1.4927 0 0 0-.0439-.208c-.1226-.4283-.4213-.7866-.7797-.9351-.1424-.059-.4038-.1672-.7178-.0869.067-.276.1831-.5875.309-.9249l.0529-.142c.0595-.16.134-.3257.213-.5012.4265-.9476 1.0106-2.2453.3766-5.1772-.2374-1.0981-1.0304-1.6343-2.2324-1.5098-.7207.0746-1.3799.3654-1.7088.5321a5.6716 5.6716 0 0 0-.1958.1041c.0918-1.1064.4386-3.1741 1.7357-4.4823a4.0306 4.0306 0 0 1 .3033-.276.3532.3532 0 0 0 .1447-.0644c.7524-.5706 1.6945-.8506 2.802-.8325.4091.0067.8017.0339 1.1742.081 1.939.3544 3.2439 1.4468 4.0359 2.3827.8143.9623 1.2552 1.9315 1.4312 2.4543-1.3232-.1346-2.2234.1268-2.6797.779-.9926 1.4189.543 4.1729 1.2811 5.4964.1353.2426.2522.4522.2889.5413.2403.5825.5515.9713.7787 1.2552.0696.087.1372.1714.1885.245-.4008.1155-1.1208.3825-1.0552 1.717-.0123.1563-.0423.4469-.0834.8148-.0461.2077-.0702.4603-.0994.7662zm.8905-1.6211c-.0405-.8316.2691-.9185.5967-1.0105a2.8566 2.8566 0 0 0 .135-.0406 1.202 1.202 0 0 0 .1342.103c.5703.3765 1.5823.4213 3.0068.1344-.2016.1769-.5189.3994-.9533.6011-.4098.1903-1.0957.333-1.7473.3636-.7197.0336-1.0859-.0807-1.1721-.151zm.5695-9.2712c-.0059.3508-.0542.6692-.1054 1.0017-.055.3576-.112.7274-.1264 1.1762-.0142.4368.0404.8909.0932 1.3301.1066.887.216 1.8003-.2075 2.7014a3.5272 3.5272 0 0 1-.1876-.3856c-.0527-.1276-.1669-.3326-.3251-.6162-.6156-1.1041-2.0574-3.6896-1.3193-4.7446.3795-.5427 1.3408-.5661 2.1781-.463zm.2284 7.0137a12.3762 12.3762 0 0 0-.0853-.1074l-.0355-.0444c.7262-1.1995.5842-2.3862.4578-3.4385-.0519-.4318-.1009-.8396-.0885-1.2226.0129-.4061.0666-.7543.1185-1.0911.0639-.415.1288-.8443.1109-1.3505.0134-.0531.0188-.1158.0118-.1902-.0457-.4855-.5999-1.938-1.7294-3.253-.6076-.7073-1.4896-1.4972-2.6889-2.0395.5251-.1066 1.2328-.2035 2.0244-.1859 2.0515.0456 3.6746.8135 4.8242 2.2824a.908.908 0 0 1 .0667.1002c.7231 1.3556-.2762 6.2751-2.9867 10.5405zm-8.8166-6.1162c-.025.1794-.3089.4225-.6211.4225a.5821.5821 0 0 1-.0809-.0056c-.1873-.026-.3765-.144-.5059-.3156-.0458-.0605-.1203-.178-.1055-.2844.0055-.0401.0261-.0985.0925-.1488.1182-.0894.3518-.1226.6096-.0867.3163.0441.6426.1938.6113.4186zm7.9305-.4114c.0111.0792-.049.201-.1531.3102-.0683.0717-.212.1961-.4079.2232a.5456.5456 0 0 1-.075.0052c-.2935 0-.5414-.2344-.5607-.3717-.024-.1765.2641-.3106.5611-.352.297-.0414.6111.0088.6356.1851z"/></g>
<text x="1133.3333333333335" y="554" text-anchor="middle" fill="#cbd5e1" font-size="11">Postgres</text>
<rect x="1210" y="442" width="270" height="200" rx="12" fill="#1e293b" stroke="#fbbf24" stroke-opacity="0.6"/>
<text x="1345.0" y="468" text-anchor="middle" fill="#fbbf24" font-size="13" font-weight="700">namespace: monitoring</text>
<g transform="translate(1260.5,498) scale(1.4167)"><path fill="#E6522C" d="M12 0C5.373 0 0 5.372 0 12c0 6.627 5.373 12 12 12s12-5.373 12-12c0-6.628-5.373-12-12-12zm0 22.46c-1.885 0-3.414-1.26-3.414-2.814h6.828c0 1.553-1.528 2.813-3.414 2.813zm5.64-3.745H6.36v-2.046h11.28v2.046zm-.04-3.098H6.391c-.037-.043-.075-.086-.111-.13-1.155-1.401-1.427-2.133-1.69-2.879-.005-.025 1.4.287 2.395.511 0 0 .513.119 1.262.255-.72-.843-1.147-1.915-1.147-3.01 0-2.406 1.845-4.508 1.18-6.207.648.053 1.34 1.367 1.387 3.422.689-.951.977-2.69.977-3.755 0-1.103.727-2.385 1.454-2.429-.648 1.069.168 1.984.894 4.256.272.854.237 2.29.447 3.201.07-1.892.395-4.652 1.595-5.605-.529 1.2.079 2.702.494 3.424.671 1.164 1.078 2.047 1.078 3.716a4.642 4.642 0 01-1.11 2.996c.792-.149 1.34-.283 1.34-.283l2.573-.502s-.374 1.538-1.81 3.019z"/></g>
<text x="1277.5" y="554" text-anchor="middle" fill="#cbd5e1" font-size="11">Prometheus</text>
<g transform="translate(1395.5,498) scale(1.4167)"><path fill="#F46800" d="M23.02 10.59a8.578 8.578 0 0 0-.862-3.034 8.911 8.911 0 0 0-1.789-2.445c.337-1.342-.413-2.505-.413-2.505-1.292-.08-2.113.4-2.416.62-.052-.02-.102-.044-.154-.064-.22-.089-.446-.172-.677-.247-.231-.073-.47-.14-.711-.197a9.867 9.867 0 0 0-.875-.161C14.557.753 12.94 0 12.94 0c-1.804 1.145-2.147 2.744-2.147 2.744l-.018.093c-.098.029-.2.057-.298.088-.138.042-.275.094-.413.143-.138.055-.275.107-.41.166a8.869 8.869 0 0 0-1.557.87l-.063-.029c-2.497-.955-4.716.195-4.716.195-.203 2.658.996 4.33 1.235 4.636a11.608 11.608 0 0 0-.607 2.635C1.636 12.677.953 15.014.953 15.014c1.926 2.214 4.171 2.351 4.171 2.351.003-.002.006-.002.006-.005.285.509.615.994.986 1.446.156.19.32.371.488.548-.704 2.009.099 3.68.099 3.68 2.144.08 3.553-.937 3.849-1.173a9.784 9.784 0 0 0 3.164.501h.08l.055-.003.107-.002.103-.005.003.002c1.01 1.44 2.788 1.646 2.788 1.646 1.264-1.332 1.337-2.653 1.337-2.94v-.058c0-.02-.003-.039-.003-.06.265-.187.52-.387.758-.6a7.875 7.875 0 0 0 1.415-1.7c1.43.083 2.437-.885 2.437-.885-.236-1.49-1.085-2.216-1.264-2.354l-.018-.013-.016-.013a.217.217 0 0 1-.031-.02c.008-.092.016-.18.02-.27.011-.162.016-.323.016-.48v-.253l-.005-.098-.008-.135a1.891 1.891 0 0 0-.01-.13c-.003-.042-.008-.083-.013-.125l-.016-.124-.018-.122a6.215 6.215 0 0 0-2.032-3.73 6.015 6.015 0 0 0-3.222-1.46 6.292 6.292 0 0 0-.85-.048l-.107.002h-.063l-.044.003-.104.008a4.777 4.777 0 0 0-3.335 1.695c-.332.4-.592.84-.768 1.297a4.594 4.594 0 0 0-.312 1.817l.003.091c.005.055.007.11.013.164a3.615 3.615 0 0 0 .698 1.82 3.53 3.53 0 0 0 1.827 1.282c.33.098.66.14.971.137.039 0 .078 0 .114-.002l.063-.003c.02 0 .041-.003.062-.003.034-.002.065-.007.099-.01.007 0 .018-.003.028-.003l.031-.005.06-.008a1.18 1.18 0 0 0 .112-.02c.036-.008.072-.013.109-.024a2.634 2.634 0 0 0 .914-.415c.028-.02.056-.041.085-.065a.248.248 0 0 0 .039-.35.244.244 0 0 0-.309-.06l-.078.042c-.09.044-.184.083-.283.116a2.476 2.476 0 0 1-.475.096c-.028.003-.054.006-.083.006l-.083.002c-.026 0-.054 0-.08-.002l-.102-.006h-.012l-.024.006c-.016-.003-.031-.003-.044-.006-.031-.002-.06-.007-.091-.01a2.59 2.59 0 0 1-.724-.213 2.557 2.557 0 0 1-.667-.438 2.52 2.52 0 0 1-.805-1.475 2.306 2.306 0 0 1-.029-.444l.006-.122v-.023l.002-.031c.003-.021.003-.04.005-.06a3.163 3.163 0 0 1 1.352-2.29 3.12 3.12 0 0 1 .937-.43 2.946 2.946 0 0 1 .776-.101h.06l.07.002.045.003h.026l.07.005a4.041 4.041 0 0 1 1.635.49 3.94 3.94 0 0 1 1.602 1.662 3.77 3.77 0 0 1 .397 1.414l.005.076.003.075c.002.026.002.05.002.075 0 .024.003.052 0 .07v.065l-.002.073-.008.174a6.195 6.195 0 0 1-.08.639 5.1 5.1 0 0 1-.267.927 5.31 5.31 0 0 1-.624 1.13 5.052 5.052 0 0 1-3.237 2.014 4.82 4.82 0 0 1-.649.066l-.039.003h-.287a6.607 6.607 0 0 1-1.716-.265 6.776 6.776 0 0 1-3.4-2.274 6.75 6.75 0 0 1-.746-1.15 6.616 6.616 0 0 1-.714-2.596l-.005-.083-.002-.02v-.056l-.003-.073v-.096l-.003-.104v-.07l.003-.163c.008-.22.026-.45.054-.678a8.707 8.707 0 0 1 .28-1.355c.128-.444.286-.872.473-1.277a7.04 7.04 0 0 1 1.456-2.1 5.925 5.925 0 0 1 .953-.763c.169-.111.343-.213.524-.306.089-.05.182-.091.273-.135.047-.02.093-.042.138-.062a7.177 7.177 0 0 1 .714-.267l.145-.045c.049-.015.098-.026.148-.041.098-.029.197-.052.296-.076.049-.013.1-.02.15-.033l.15-.032.151-.028.076-.013.075-.01.153-.024c.057-.01.114-.013.171-.023l.169-.021c.036-.003.073-.008.106-.01l.073-.008.036-.003.042-.002c.057-.003.114-.008.171-.01l.086-.006h.023l.037-.003.145-.007a7.999 7.999 0 0 1 1.708.125 7.917 7.917 0 0 1 2.048.68 8.253 8.253 0 0 1 1.672 1.09l.09.077.089.078c.06.052.114.107.171.159.057.052.112.106.166.16.052.055.107.107.159.164a8.671 8.671 0 0 1 1.41 1.978c.012.026.028.052.04.078l.04.078.075.156c.023.051.05.1.07.153l.065.15a8.848 8.848 0 0 1 .45 1.34.19.19 0 0 0 .201.142.186.186 0 0 0 .172-.184c.01-.246.002-.532-.024-.856z"/></g>
<text x="1412.5" y="554" text-anchor="middle" fill="#cbd5e1" font-size="11">Grafana</text>
<text x="730" y="582" text-anchor="middle" fill="#64748b" font-size="11">prod-devops-depi.duckdns.org</text>
<text x="1040" y="582" text-anchor="middle" fill="#64748b" font-size="11">dev-devops-depi.duckdns.org</text>
<text x="1345" y="582" text-anchor="middle" fill="#64748b" font-size="11">monitoring-…duckdns.org</text>
<text x="1345" y="602" text-anchor="middle" fill="#64748b" font-size="11">scrapes /actuator/prometheus</text>
<line x1="215" y1="532" x2="313" y2="532" stroke="#64748b" stroke-width="2" marker-end="url(#arr)"/>
<rect x="201.2" y="503" width="127.60000000000001" height="20" rx="10" fill="#0f172a" stroke="#1e293b"/>
<text x="265.0" y="517.5" text-anchor="middle" fill="#94a3b8" font-size="11">watches main + dev</text>
<line x1="485" y1="532" x2="558" y2="532" stroke="#f97316" stroke-width="2" marker-end="url(#arrA)"/>
<rect x="471.1" y="503" width="102.8" height="20" rx="10" fill="#0f172a" stroke="#1e293b"/>
<text x="522.5" y="517.5" text-anchor="middle" fill="#fdba74" font-size="11">sync manifests</text>
<path d="M 1369.0 267.0 L 1369.0 297.0 Q 1369.0 305.0 1361.0 305.0 L 1088 305.0 Q 1080 305.0 1080 313.0 L 1080 378" fill="none" stroke="#64748b" stroke-width="2" stroke-dasharray="5 4" marker-end="url(#arr)"/>
<rect x="1185.5" y="294.0" width="78.0" height="20" rx="10" fill="#0f172a" stroke="#1e293b"/>
<text x="1224.5" y="308.5" text-anchor="middle" fill="#94a3b8" font-size="11">image pull</text>
<line x1="215" y1="662" x2="558" y2="662" stroke="#64748b" stroke-width="2" stroke-dasharray="5 4" marker-end="url(#arr)"/>
<rect x="311.3" y="633" width="152.4" height="20" rx="10" fill="#0f172a" stroke="#1e293b"/>
<text x="387.5" y="647.5" text-anchor="middle" fill="#94a3b8" font-size="11">scans the deployed app</text>
<rect x="30" y="752" width="1500" height="270" rx="18" fill="#131c31" stroke="#1e293b"/>
<rect x="30" y="752" width="6" height="270" rx="3" fill="#7B42BC"/>
<text x="54" y="782" fill="#94a3b8" font-size="14" font-weight="700" letter-spacing="2">INFRASTRUCTURE — PROVISIONED ONCE, OWNED BY CODE</text>
<rect x="70.0" y="845.0" width="150" height="130" rx="12" fill="#1e293b" stroke="#844FBA" stroke-opacity="0.55"/>
<g transform="translate(123.0,859.0) scale(1.8333)"><path fill="#844FBA" d="M1.44 0v7.575l6.561 3.79V3.787zm21.12 4.227l-6.561 3.791v7.574l6.56-3.787zM8.72 4.23v7.575l6.561 3.787V8.018zm0 8.405v7.575L15.28 24v-7.578z"/></g>
<text x="145.0" y="921.0" text-anchor="middle" fill="#e2e8f0" font-size="13" font-weight="600">Terraform</text>
<text x="145.0" y="936.0" text-anchor="middle" fill="#94a3b8" font-size="11">libvirt provider</text>
<rect x="337.5" y="845.0" width="330" height="130" rx="12" fill="#1e293b" stroke="#FF6600" stroke-opacity="0.55"/>
<g transform="translate(355.5,859.0) scale(1.5000)"><path fill="#FF6600" d="M12.003.064C5.376.064 0 5.407 0 12s5.376 11.936 12.003 11.936c2.169 0 4.2-.57 5.955-1.57l.624 1.57h4.841l-1.893-4.679A11.845 11.845 0 0024 12C24 5.407 18.63.064 12.003.064zM8.818 2.03c.398.339.324.198.86.134.61-.397.893.942 1.147.195.748.097 1.542.34 2.25.584a3.447 3.447 0 011.859 1.128l-.014.007.35.463c.045.08.082.164.12.248.142 1.205 1.48 1.19 2.377 1.625.767.272 1.69.686 1.785 1.611-.193-.042-.941-.921-1.53-1.007a3.919 3.919 0 01-1.094-.255L14.86 6.38v-.007a3.035 3.035 0 01-.309-.053v.013l-2.927-.362c.048.033.1.077.148.12l3 .585v-.007l.209.053.839.188c.166.016.334.043.47.067.856.236 1.868.194 2.571.792-.184.352-1.21.153-1.719.108-.062-.012-.131-.023-.194-.034l-.034-.007c-.696-.113-1.411-.12-2.081.088h-.007a3.193 3.193 0 00-.671.302c-.968.563-2.164.767-2.967 1.577-.787.847-.739 2.012-.604 3.095h.033v.275c.013.095.028.19.04.282.41 2.19 1.5 4.2 1.84 6.412.065.843.203 1.932.309 2.618-.306-.091-.475-1.462-.544-1.007a38.196 38.196 0 00-3.565-5.25c-.853-1.004-1.697-2.06-2.712-2.894-.685-.528-.468-1.55-.537-2.302-.23-.926-.094-1.848.06-2.773.313-.963.418-1.968.846-2.893.653-.581.669-1.63 1.303-2.135.094.058.157.085.2.1l.068.008h.007c.09-.095-.888-1.116.02-.712.035-.537.854-.128.866-.597zm3.847 2.182c-.323.009-.574.13-.645.335-.114.33.273.755.866.96.594.205 1.168.109 1.282-.221.114-.33-.272-.762-.866-.967a1.842 1.842 0 00-.637-.107z"/></g>
<text x="403.5" y="883.0" fill="#e2e8f0" font-size="13" font-weight="600">QEMU / KVM</text>
<rect x="355.5" y="912" width="92" height="44" rx="8" fill="#0f172a" stroke="#334155"/>
<text x="401.5" y="930" text-anchor="middle" fill="#cbd5e1" font-size="11" font-weight="600">master</text>
<text x="401.5" y="946" text-anchor="middle" fill="#64748b" font-size="10">10.17.3.10</text>
<rect x="455.5" y="912" width="92" height="44" rx="8" fill="#0f172a" stroke="#334155"/>
<text x="501.5" y="930" text-anchor="middle" fill="#cbd5e1" font-size="11" font-weight="600">agent-1</text>
<text x="501.5" y="946" text-anchor="middle" fill="#64748b" font-size="10">10.17.3.11</text>
<rect x="555.5" y="912" width="92" height="44" rx="8" fill="#0f172a" stroke="#334155"/>
<text x="601.5" y="930" text-anchor="middle" fill="#cbd5e1" font-size="11" font-weight="600">agent-2</text>
<text x="601.5" y="946" text-anchor="middle" fill="#64748b" font-size="10">10.17.3.12</text>
<rect x="785.0" y="845.0" width="150" height="130" rx="12" fill="#1e293b" stroke="#EE0000" stroke-opacity="0.55"/>
<g transform="translate(838.0,859.0) scale(1.8333)"><path fill="#EE0000" d="M10.617 11.473l4.686 3.695-3.102-7.662zM12 0C5.371 0 0 5.371 0 12s5.371 12 12 12 12-5.371 12-12S18.629 0 12 0zm5.797 17.305c-.011.471-.403.842-.875.83-.236 0-.416-.09-.664-.293l-6.19-5-2.079 5.203H6.191L11.438 5.44c.124-.314.427-.52.764-.506.326-.014.63.189.742.506l4.774 11.494c.045.111.08.234.08.348-.001.009-.001.009-.001.023z"/></g>
<text x="860.0" y="921.0" text-anchor="middle" fill="#e2e8f0" font-size="13" font-weight="600">Ansible</text>
<text x="860.0" y="936.0" text-anchor="middle" fill="#94a3b8" font-size="11">node prep · k3s install</text>
<rect x="1052.5" y="845.0" width="150" height="130" rx="12" fill="#1e293b" stroke="#FFC61C" stroke-opacity="0.55"/>
<g transform="translate(1105.5,859.0) scale(1.8333)"><path fill="#FFC61C" d="M21.46 2.172H2.54A2.548 2.548 0 0 0 0 4.712v14.575a2.548 2.548 0 0 0 2.54 2.54h18.92a2.548 2.548 0 0 0 2.54-2.54V4.713a2.548 2.548 0 0 0-2.54-2.54ZM10.14 16.465 5.524 19.15a1.235 1.235 0 1 1-1.242-2.137L8.9 14.33a1.235 1.235 0 1 1 1.241 2.136zm1.817-4.088h-.006a1.235 1.235 0 0 1-1.23-1.24l.023-5.32a1.236 1.236 0 0 1 1.236-1.23h.005a1.235 1.235 0 0 1 1.23 1.241l-.023 5.32a1.236 1.236 0 0 1-1.235 1.23zm8.17 6.32a1.235 1.235 0 0 1-1.688.453l-4.624-2.67a1.235 1.235 0 1 1 1.235-2.14l4.624 2.67a1.235 1.235 0 0 1 .452 1.688z"/></g>
<text x="1127.5" y="921.0" text-anchor="middle" fill="#e2e8f0" font-size="13" font-weight="600">k3s</text>
<text x="1127.5" y="936.0" text-anchor="middle" fill="#94a3b8" font-size="11">v1.29 · 3-node cluster</text>
<rect x="1320.0" y="845.0" width="170" height="130" rx="12" fill="#1e293b" stroke="#e2e8f0" stroke-opacity="0.55"/>
<g transform="translate(1383.0,859.0) scale(1.8333)"><path fill="#e2e8f0" d="M12.337 0c-.475 0-.861 1.016-.861 2.269 0 .527.069 1.011.183 1.396a8.514 8.514 0 0 0-3.961 1.22 5.229 5.229 0 0 0-.595-1.093c-.606-.866-1.34-1.436-1.79-1.43a.381.381 0 0 0-.217.066c-.39.273-.123 1.326.596 2.353.267.381.559.705.84.948a8.683 8.683 0 0 0-1.528 1.716h1.734a7.179 7.179 0 0 1 5.381-2.421 7.18 7.18 0 0 1 5.382 2.42h1.733a8.687 8.687 0 0 0-1.32-1.53c.35-.249.735-.643 1.078-1.133.719-1.027.986-2.08.596-2.353a.382.382 0 0 0-.217-.065c-.45-.007-1.184.563-1.79 1.43a4.897 4.897 0 0 0-.676 1.325 8.52 8.52 0 0 0-3.899-1.42c.12-.39.193-.887.193-1.429 0-1.253-.386-2.269-.862-2.269zM1.624 9.443v5.162h1.358v-1.968h1.64v1.968h1.357V9.443H4.62v1.838H2.98V9.443zm5.912 0v5.162h3.21v-1.108H8.893v-.95h1.64v-1.142h-1.64v-.84h1.853V9.443zm4.698 0v5.162h3.218v-1.362h-1.86v-3.8zm4.706 0v5.162h1.364v-2.643l1.357 1.225 1.35-1.232v2.65h1.365V9.443h-.614l-2.1 1.914-2.109-1.914zm-11.82 7.28a8.688 8.688 0 0 0 1.412 1.548 5.206 5.206 0 0 0-.841.948c-.719 1.027-.985 2.08-.596 2.353.39.273 1.289-.338 2.007-1.364a5.23 5.23 0 0 0 .595-1.092 8.514 8.514 0 0 0 3.961 1.219 5.01 5.01 0 0 0-.183 1.396c0 1.253.386 2.269.861 2.269.476 0 .862-1.016.862-2.269 0-.542-.072-1.04-.193-1.43a8.52 8.52 0 0 0 3.9-1.42c.121.4.352.865.675 1.327.719 1.026 1.617 1.637 2.007 1.364.39-.273.123-1.326-.596-2.353-.343-.49-.727-.885-1.077-1.135a8.69 8.69 0 0 0 1.202-1.36h-1.771a7.174 7.174 0 0 1-5.227 2.252 7.174 7.174 0 0 1-5.226-2.252z"/></g>
<text x="1405.0" y="921.0" text-anchor="middle" fill="#e2e8f0" font-size="13" font-weight="600">Helm</text>
<text x="1405.0" y="936.0" text-anchor="middle" fill="#94a3b8" font-size="11">installs ArgoCD + root app</text>
<line x1="220.0" y1="910" x2="335.5" y2="910" stroke="#64748b" stroke-width="2" marker-end="url(#arr)"/>
<rect x="221.15" y="881" width="115.2" height="20" rx="10" fill="#0f172a" stroke="#1e293b"/>
<text x="278.75" y="895.5" text-anchor="middle" fill="#94a3b8" font-size="11">provisions 3 VMs</text>
<line x1="667.5" y1="910" x2="783.0" y2="910" stroke="#64748b" stroke-width="2" marker-end="url(#arr)"/>
<rect x="668.65" y="881" width="115.2" height="20" rx="10" fill="#0f172a" stroke="#1e293b"/>
<text x="726.25" y="895.5" text-anchor="middle" fill="#94a3b8" font-size="11">cloud-init · SSH</text>
<line x1="935.0" y1="910" x2="1050.5" y2="910" stroke="#64748b" stroke-width="2" marker-end="url(#arr)"/>
<rect x="936.15" y="881" width="115.2" height="20" rx="10" fill="#0f172a" stroke="#1e293b"/>
<text x="993.75" y="895.5" text-anchor="middle" fill="#94a3b8" font-size="11">installs + joins</text>
<line x1="1202.5" y1="910" x2="1318.0" y2="910" stroke="#64748b" stroke-width="2" marker-end="url(#arr)"/>
<path d="M 1405.0 843.0 L 1405.0 745.0 Q 1405.0 737.0 1397.0 737.0 L 408 737.0 Q 400 737.0 400 729.0 L 400 611" fill="none" stroke="#f97316" stroke-width="2" stroke-dasharray="5 4" marker-end="url(#arrA)"/>
<rect x="776.7" y="726.0" width="251.6" height="20" rx="10" fill="#0f172a" stroke="#1e293b"/>
<text x="902.5" y="740.5" text-anchor="middle" fill="#fdba74" font-size="11">bootstraps ArgoCD + registers root app</text>
</svg>